{
	"asset":{
		"version":"2.0",
		"generator":"Created using the official Cinema 4D glTF Exporter 1.000x284978"
	},
	"textures":[{
		"sampler":0,
		"source":0
	},
	{
		"sampler":1,
		"source":1
	},
	{
		"sampler":2,
		"source":2
	},
	{
		"sampler":3,
		"source":3
	}],
	"scenes":[{
		"nodes":[0]
	}],
	"nodes":[{
		"name":"product",
		"translation":[0.00010697077959775925,
		-0.014609696343541146,
		-0.0003945308271795511],
		"rotation":[0.0,
		0.0,
		0.0,
		-1.0],
		"scale":[1.0,
		1.0,
		1.0],
		"children":[1,
		2,
		3,
		4,
		5]
	},
	{
		"name":"product-WHITE PLASTIC",
		"translation":[0.0,
		0.0,
		0.0],
		"rotation":[0.0,
		0.0,
		0.0,
		-1.0],
		"scale":[1.0,
		1.0,
		1.0],
		"mesh":0
	},
	{
		"name":"product-LABEL",
		"translation":[0.0,
		0.0,
		0.0],
		"rotation":[0.0,
		0.0,
		0.0,
		-1.0],
		"scale":[1.0,
		1.0,
		1.0],
		"mesh":1
	},
	{
		"name":"product-verre",
		"translation":[0.0,
		0.0,
		0.0],
		"rotation":[0.0,
		0.0,
		0.0,
		-1.0],
		"scale":[1.0,
		1.0,
		1.0],
		"mesh":2
	},
	{
		"name":"product-Plywood_vf1oairg",
		"translation":[0.0,
		0.0,
		0.0],
		"rotation":[0.0,
		0.0,
		0.0,
		-1.0],
		"scale":[1.0,
		1.0,
		1.0],
		"mesh":3
	},
	{
		"name":"product-CREAM",
		"translation":[0.0,
		0.0,
		0.0],
		"rotation":[0.0,
		0.0,
		0.0,
		-1.0],
		"scale":[1.0,
		1.0,
		1.0],
		"mesh":4
	}],
	"meshes":[{
		"name":"product-WHITE PLASTIC",
		"primitives":[{
			"attributes":{
				"POSITION":1,
				"NORMAL":2,
				"TEXCOORD_0":3
			},
			"indices":0,
			"material":0
		}]
	},
	{
		"name":"product-LABEL",
		"primitives":[{
			"attributes":{
				"POSITION":5,
				"NORMAL":6,
				"TEXCOORD_0":7
			},
			"indices":4,
			"material":1
		}]
	},
	{
		"name":"product-verre",
		"primitives":[{
			"attributes":{
				"POSITION":9,
				"NORMAL":10,
				"TEXCOORD_0":11
			},
			"indices":8,
			"material":2
		}]
	},
	{
		"name":"product-Plywood_vf1oairg",
		"primitives":[{
			"attributes":{
				"POSITION":13,
				"NORMAL":14,
				"TEXCOORD_0":15
			},
			"indices":12,
			"material":3
		}]
	},
	{
		"name":"product-CREAM",
		"primitives":[{
			"attributes":{
				"POSITION":17,
				"NORMAL":18,
				"TEXCOORD_0":19
			},
			"indices":16,
			"material":4
		}]
	}],
	"accessors":[{
		"bufferView":0,
		"type":"SCALAR",
		"componentType":5123,
		"byteOffset":0,
		"count":2808,
		"min":[0],
		"max":[504]
	},
	{
		"bufferView":1,
		"type":"VEC3",
		"componentType":5126,
		"byteOffset":0,
		"count":505,
		"min":[-0.5053487420082092,
		0.2598893940448761,
		-0.5063517689704895],
		"max":[0.5057766437530518,
		0.4506620466709137,
		0.5047736167907715]
	},
	{
		"bufferView":1,
		"type":"VEC3",
		"componentType":5126,
		"byteOffset":12,
		"count":505,
		"min":[-0.9997813105583191,
		-1.0,
		-0.9997813105583191],
		"max":[0.9997813105583191,
		-0.011718750931322575,
		0.9997813105583191]
	},
	{
		"bufferView":1,
		"type":"VEC2",
		"componentType":5126,
		"byteOffset":24,
		"count":505,
		"min":[0.0050553493201732639,
		0.005055367946624756],
		"max":[0.9949445724487305,
		0.9949445724487305]
	},
	{
		"bufferView":2,
		"type":"SCALAR",
		"componentType":5123,
		"byteOffset":0,
		"count":216,
		"min":[0],
		"max":[73]
	},
	{
		"bufferView":3,
		"type":"VEC3",
		"componentType":5126,
		"byteOffset":0,
		"count":74,
		"min":[-0.5777069926261902,
		-0.16778098046779633,
		-0.57720547914505],
		"max":[0.5774930119514465,
		0.20321902632713319,
		0.5779945254325867]
	},
	{
		"bufferView":3,
		"type":"VEC3",
		"componentType":5126,
		"byteOffset":12,
		"count":74,
		"min":[-1.0,
		0.0,
		-1.0],
		"max":[1.0,
		0.0,
		1.0]
	},
	{
		"bufferView":3,
		"type":"VEC2",
		"componentType":5126,
		"byteOffset":24,
		"count":74,
		"min":[0.0,
		0.0],
		"max":[1.0,
		1.0]
	},
	{
		"bufferView":4,
		"type":"SCALAR",
		"componentType":5123,
		"byteOffset":0,
		"count":6060,
		"min":[0],
		"max":[1301]
	},
	{
		"bufferView":5,
		"type":"VEC3",
		"componentType":5126,
		"byteOffset":0,
		"count":1302,
		"min":[-0.5718319416046143,
		-0.28788816928863528,
		-0.5713304877281189],
		"max":[0.5716180205345154,
		0.2488798350095749,
		0.5721195340156555]
	},
	{
		"bufferView":5,
		"type":"VEC3",
		"componentType":5126,
		"byteOffset":12,
		"count":1302,
		"min":[-1.0,
		-1.0,
		-1.0],
		"max":[1.0,
		1.0,
		1.0]
	},
	{
		"bufferView":5,
		"type":"VEC2",
		"componentType":5126,
		"byteOffset":24,
		"count":1302,
		"min":[0.0,
		0.0],
		"max":[1.0,
		1.0]
	},
	{
		"bufferView":6,
		"type":"SCALAR",
		"componentType":5123,
		"byteOffset":0,
		"count":12312,
		"min":[0],
		"max":[2609]
	},
	{
		"bufferView":7,
		"type":"VEC3",
		"componentType":5126,
		"byteOffset":0,
		"count":2610,
		"min":[-0.5770946741104126,
		0.23437811434268952,
		-0.5780977010726929],
		"max":[0.5775225758552551,
		0.5563228130340576,
		0.5765195488929749]
	},
	{
		"bufferView":7,
		"type":"VEC3",
		"componentType":5126,
		"byteOffset":12,
		"count":2610,
		"min":[-1.0,
		-0.9994062781333923,
		-1.0],
		"max":[1.0,
		1.0,
		1.0]
	},
	{
		"bufferView":7,
		"type":"VEC2",
		"componentType":5126,
		"byteOffset":24,
		"count":2610,
		"min":[-0.004800938535481691,
		-1.004800796508789],
		"max":[1.0277777910232545,
		0.004800915718078613]
	},
	{
		"bufferView":8,
		"type":"SCALAR",
		"componentType":5123,
		"byteOffset":0,
		"count":17496,
		"min":[0],
		"max":[2952]
	},
	{
		"bufferView":9,
		"type":"VEC3",
		"componentType":5126,
		"byteOffset":0,
		"count":2953,
		"min":[-0.4254736006259918,
		0.28644299507141116,
		-0.42447057366371157],
		"max":[0.4250457286834717,
		0.32128050923347475,
		0.42604872584342959]
	},
	{
		"bufferView":9,
		"type":"VEC3",
		"componentType":5126,
		"byteOffset":12,
		"count":2953,
		"min":[-0.5954375267028809,
		0.7393437623977661,
		-0.4945000112056732],
		"max":[0.6491562724113464,
		0.9999688267707825,
		0.6302812695503235]
	},
	{
		"bufferView":9,
		"type":"VEC2",
		"componentType":5126,
		"byteOffset":24,
		"count":2953,
		"min":[0.021214120090007783,
		0.02121412754058838],
		"max":[0.9787858724594116,
		0.9787858724594116]
	}],
	"bufferViews":[{
		"buffer":0,
		"byteOffset":0,
		"byteLength":5616,
		"target":34963
	},
	{
		"buffer":0,
		"byteOffset":5616,
		"byteLength":16160,
		"target":34962,
		"byteStride":32
	},
	{
		"buffer":1,
		"byteOffset":0,
		"byteLength":432,
		"target":34963
	},
	{
		"buffer":1,
		"byteOffset":432,
		"byteLength":2368,
		"target":34962,
		"byteStride":32
	},
	{
		"buffer":2,
		"byteOffset":0,
		"byteLength":12120,
		"target":34963
	},
	{
		"buffer":2,
		"byteOffset":12120,
		"byteLength":41664,
		"target":34962,
		"byteStride":32
	},
	{
		"buffer":3,
		"byteOffset":0,
		"byteLength":24624,
		"target":34963
	},
	{
		"buffer":3,
		"byteOffset":24624,
		"byteLength":83520,
		"target":34962,
		"byteStride":32
	},
	{
		"buffer":4,
		"byteOffset":0,
		"byteLength":34992,
		"target":34963
	},
	{
		"buffer":4,
		"byteOffset":34992,
		"byteLength":94496,
		"target":34962,
		"byteStride":32
	}],
	"buffers":[{
		"uri":"data:application/octet-stream;base64,",
		"byteLength":21776
	},
	{
		"uri":"data:application/octet-stream;base64,",
		"byteLength":2800
	},
	{
		"uri":"data:application/octet-stream;base64,",
		"byteLength":53784
	},
	{
		"uri":"data:application/octet-stream;base64,",
		"byteLength":108144
	},
	{
		"uri":"data:application/octet-stream;base64,",
		"byteLength":129488
	}],
	"materials":[{
		"emissiveFactor":[0.0,
		0.0,
		0.0],
		"pbrMetallicRoughness":{
			"baseColorFactor":[0.8,
			0.8,
			0.8,
			1.0],
			"metallicFactor":0.0,
			"roughnessFactor":0.5
		},
		"alphaMode":"OPAQUE",
		"doubleSided":false,
		"name":"WHITE PLASTIC"
	},
	{
		"emissiveFactor":[0.0,
		0.0,
		0.0],
		"pbrMetallicRoughness":{
			"baseColorTexture":{
				"index":0
			},
			"baseColorFactor":[0.96,
			0.96,
			0.96,
			1.0],
			"metallicFactor":0.0,
			"roughnessFactor":0.5
		},
		"alphaMode":"OPAQUE",
		"doubleSided":false,
		"name":"LABEL"
	},
	{
		"emissiveFactor":[0.0,
		0.0,
		0.0],
		"pbrMetallicRoughness":{
			"baseColorFactor":[0.87,
			0.87,
			0.87,
			0.53],
			"metallicFactor":0.0,
			"roughnessFactor":0.5
		},
		"alphaMode":"BLEND",
		"doubleSided":false,
		"name":"verre"
	},
	{
		"emissiveFactor":[0.0,
		0.0,
		0.0],
		"pbrMetallicRoughness":{
			"baseColorTexture":{
				"index":1
			},
			"baseColorFactor":[0.96,
			0.96,
			0.96,
			1.0],
			"metallicRoughnessTexture":{
				"index":2
			},
			"metallicFactor":0.96,
			"roughnessFactor":0.96
		},
		"normalTexture":{
			"index":3,
			"scale":1.0
		},
		"alphaMode":"OPAQUE",
		"doubleSided":false,
		"name":"Plywood_vf1oairg"
	},
	{
		"emissiveFactor":[0.0,
		0.0,
		0.0],
		"pbrMetallicRoughness":{
			"baseColorFactor":[0.44,
			0.34804000000000087,
			0.18919999999999999,
			1.0],
			"metallicFactor":0.0,
			"roughnessFactor":0.5
		},
		"alphaMode":"OPAQUE",
		"doubleSided":false,
		"name":"CREAM"
	}],
	"images":[{
		"uri":"data:image/jpeg;base64,"
	},
	{
		"uri":"data:image/jpeg;base64,"
	},
	{
		"uri":"data:image/jpeg;base64,"
	},
	{
		"uri":"data:image/jpeg;base64,"
	}],
	"samplers":[{
		"magFilter":9729,
		"minFilter":9729,
		"wrapS":10497,
		"wrapT":10497
	},
	{
		"magFilter":9729,
		"minFilter":9729,
		"wrapS":10497,
		"wrapT":10497
	},
	{
		"magFilter":9729,
		"minFilter":9729,
		"wrapS":10497,
		"wrapT":10497
	},
	{
		"magFilter":9729,
		"minFilter":9729,
		"wrapS":10497,
		"wrapT":10497
	}]
}